<svg width="20" height="21" viewBox="0 0 20 21" fill="none" xmlns="http://www.w3.org/2000/svg">
<path d="M2.5 5.2478H4.16667H17.5" stroke="white" stroke-linecap="round" stroke-linejoin="round"/>
<path d="M6.66667 5.24781V3.58114C6.66667 3.13911 6.84227 2.71519 7.15483 2.40263C7.46739 2.09007 7.89131 1.91447 8.33334 1.91447H11.6667C12.1087 1.91447 12.5326 2.09007 12.8452 2.40263C13.1577 2.71519 13.3333 3.13911 13.3333 3.58114V5.24781M15.8333 5.24781V16.9145C15.8333 17.3565 15.6577 17.7804 15.3452 18.093C15.0326 18.4055 14.6087 18.5811 14.1667 18.5811H5.83334C5.39131 18.5811 4.96739 18.4055 4.65483 18.093C4.34227 17.7804 4.16667 17.3565 4.16667 16.9145V5.24781H15.8333Z" stroke="white" stroke-linecap="round" stroke-linejoin="round"/>
</svg>
